<svg width="32" height="32" viewBox="0 0 32 32" fill="none" xmlns="http://www.w3.org/2000/svg">
<path d="M24.5712 0.443362C25.162 -0.14738 26.1192 -0.147381 26.7099 0.443362L31.5566 5.29004C32.1473 5.88079 32.1473 6.83797 31.5566 7.42871L22.9853 16L31.5566 24.5713C32.1473 25.162 32.1473 26.1192 31.5566 26.71L26.7099 31.5566C26.1192 32.1474 25.162 32.1474 24.5712 31.5566L15.9999 22.9854L7.42865 31.5566C6.83791 32.1474 5.88073 32.1474 5.28998 31.5566L0.443301 26.71C-0.147442 26.1192 -0.147441 25.162 0.443301 24.5713L9.01459 16L0.443301 7.42871C-0.147441 6.83797 -0.147442 5.88079 0.443301 5.29004L5.28998 0.443362C5.88073 -0.147381 6.83791 -0.14738 7.42865 0.443362L15.9999 9.01465L24.5712 0.443362Z" fill="#A8BFC9"/>
</svg>
